STARTFONT 2.1
FONT -Monotype-Plantin-Bold-I-Normal--19-140-100-100-P-117-iso8859-5
SIZE 14 100 100
FONTBOUNDINGBOX 27 21 -4 -4

STARTPROPERTIES 24
FOUNDRY "Monotype"
FAMILY_NAME "Plantin"
WEIGHT_NAME "Bold"
SLANT "I"
SETWIDTH_NAME "Normal"
ADD_STYLE_NAME ""
PIXEL_SIZE 19
POINT_SIZE 140
RESOLUTION_X 100
RESOLUTION_Y 100
SPACING "P"
AVERAGE_WIDTH 117
CHARSET_REGISTRY "iso8859"
CHARSET_ENCODING "5"
FACE_NAME "Plantin Bold Inclined ISO Latin Cyrillic"
_DEC_DEVICE_FONTNAMES "PS=plantin-bin-latcyrillic"
COPYRIGHT "Copyright (c) 1994 Monotype Typography Ltd."
CAP_HEIGHT 15
X_HEIGHT 9
WEIGHT 10
QUAD_WIDTH 13
DEFAULT_CHAR 160
FONT_DESCENT 5
FONT_ASCENT 17
ENDPROPERTIES

CHARS 191

STARTCHAR space
ENCODING 32
SWIDTH 250 0
DWIDTH 5 0
BBX 0 0 0 0
BITMAP
ENDCHAR

STARTCHAR exclam
ENCODING 33
SWIDTH 365 0
DWIDTH 7 0
BBX 6 14 1 0
BITMAP
08
1C
1C
1C
18
38
30
30
20
20
00
E0
E0
E0
ENDCHAR

STARTCHAR quotedbl
ENCODING 34
SWIDTH 552 0
DWIDTH 10 0
BBX 7 6 2 8
BITMAP
66
EE
EE
CC
CC
88
ENDCHAR

STARTCHAR numbersign
ENCODING 35
SWIDTH 500 0
DWIDTH 10 0
BBX 9 14 1 0
BITMAP
1100
1100
1100
1100
7F80
2200
2200
2200
2200
FF00
4400
4400
4400
4400
ENDCHAR

STARTCHAR dollar
ENCODING 36
SWIDTH 542 0
DWIDTH 10 0
BBX 10 16 0 -2
BITMAP
0200
1F80
3AC0
3A40
3A00
1E00
0E00
0700
0780
0B80
8B80
CB80
4B00
3C00
0800
0800
ENDCHAR

STARTCHAR percent
ENCODING 37
SWIDTH 833 0
DWIDTH 16 0
BBX 13 14 2 0
BITMAP
3808
6C18
CC30
CC60
CCC0
D980
7300
0670
04D8
0D98
1998
3198
61B0
C0E0
ENDCHAR

STARTCHAR ampersand
ENCODING 38
SWIDTH 958 0
DWIDTH 18 0
BBX 17 14 2 0
BITMAP
0FC000
1CE000
386700
380280
187880
3CFC80
711F00
E10E00
E1C800
E08800
E01000
703000
386000
0F8000
ENDCHAR

STARTCHAR quoteright
ENCODING 39
SWIDTH 365 0
DWIDTH 7 0
BBX 4 6 2 8
BITMAP
20
70
70
30
20
C0
ENDCHAR

STARTCHAR parenleft
ENCODING 40
SWIDTH 437 0
DWIDTH 8 0
BBX 8 18 1 -4
BITMAP
03
0E
1C
38
30
70
60
60
E0
C0
C0
C0
C0
C0
C0
60
20
10
ENDCHAR

STARTCHAR parenright
ENCODING 41
SWIDTH 437 0
DWIDTH 8 0
BBX 8 18 -1 -4
BITMAP
08
04
06
03
03
03
03
03
03
07
06
06
0E
0C
1C
38
70
C0
ENDCHAR

STARTCHAR asterisk
ENCODING 42
SWIDTH 510 0
DWIDTH 10 0
BBX 10 9 1 5
BITMAP
0400
8C40
6D80
3F00
3F00
6D80
8C40
0400
0400
ENDCHAR

STARTCHAR plus
ENCODING 43
SWIDTH 667 0
DWIDTH 13 0
BBX 10 10 2 1
BITMAP
0C00
0C00
0C00
0C00
FFC0
FFC0
0C00
0C00
0C00
0C00
ENDCHAR

STARTCHAR comma
ENCODING 44
SWIDTH 365 0
DWIDTH 7 0
BBX 4 6 1 -3
BITMAP
20
70
70
30
20
C0
ENDCHAR

STARTCHAR minus
ENCODING 45
SWIDTH 667 0
DWIDTH 13 0
BBX 11 2 1 5
BITMAP
FFE0
FFE0
ENDCHAR

STARTCHAR period
ENCODING 46
SWIDTH 292 0
DWIDTH 6 0
BBX 3 3 2 0
BITMAP
E0
E0
E0
ENDCHAR

STARTCHAR slash
ENCODING 47
SWIDTH 281 0
DWIDTH 5 0
BBX 9 14 -1 0
BITMAP
0180
0300
0300
0600
0600
0C00
0C00
1800
1800
3000
3000
6000
6000
C000
ENDCHAR

STARTCHAR zero
ENCODING 48
SWIDTH 542 0
DWIDTH 10 0
BBX 9 14 1 0
BITMAP
0600
1B00
3380
7380
6380
E380
E380
E380
E380
E300
E700
E600
6C00
3000
ENDCHAR

STARTCHAR one
ENCODING 49
SWIDTH 542 0
DWIDTH 10 0
BBX 8 14 1 0
BITMAP
03
1F
07
07
0E
0E
0E
1C
1C
1C
38
38
38
FE
ENDCHAR

STARTCHAR two
ENCODING 50
SWIDTH 542 0
DWIDTH 10 0
BBX 11 14 -1 0
BITMAP
0F80
11C0
20E0
00E0
00E0
00E0
01C0
0180
0300
0600
0800
3040
7FC0
FF80
ENDCHAR

STARTCHAR three
ENCODING 51
SWIDTH 542 0
DWIDTH 10 0
BBX 10 14 0 0
BITMAP
1F80
23C0
01C0
01C0
01C0
0380
0F00
0380
0380
0380
0380
0700
8E00
7800
ENDCHAR

STARTCHAR four
ENCODING 52
SWIDTH 542 0
DWIDTH 10 0
BBX 10 14 0 0
BITMAP
00C0
01C0
02C0
0580
0980
1180
2300
4300
FFC0
FFC0
0600
0600
0600
0600
ENDCHAR

STARTCHAR five
ENCODING 53
SWIDTH 542 0
DWIDTH 10 0
BBX 11 14 0 0
BITMAP
0FE0
0FC0
0800
1800
1E00
3F00
0780
0380
0380
0380
0380
0780
8F00
7C00
ENDCHAR

STARTCHAR six
ENCODING 54
SWIDTH 542 0
DWIDTH 10 0
BBX 11 14 1 0
BITMAP
01E0
0700
1E00
3800
7000
6000
EE00
F300
E380
E380
E380
E380
7700
3E00
ENDCHAR

STARTCHAR seven
ENCODING 55
SWIDTH 542 0
DWIDTH 10 0
BBX 9 14 1 0
BITMAP
7F80
FF80
8180
0300
0300
0600
0600
0C00
0C00
1800
1800
3000
3000
6000
ENDCHAR

STARTCHAR eight
ENCODING 56
SWIDTH 542 0
DWIDTH 10 0
BBX 10 14 0 0
BITMAP
0700
1D80
38C0
38C0
38C0
3D80
1F00
3E00
6700
C380
C380
C380
6700
3C00
ENDCHAR

STARTCHAR nine
ENCODING 57
SWIDTH 542 0
DWIDTH 10 0
BBX 11 14 -1 0
BITMAP
0F80
1DC0
38E0
38E0
38E0
38E0
19E0
0EE0
00C0
01C0
0380
0F00
1C00
F000
ENDCHAR

STARTCHAR colon
ENCODING 58
SWIDTH 365 0
DWIDTH 7 0
BBX 5 9 1 0
BITMAP
38
38
38
00
00
00
E0
E0
E0
ENDCHAR

STARTCHAR semicolon
ENCODING 59
SWIDTH 365 0
DWIDTH 7 0
BBX 6 12 0 -3
BITMAP
1C
1C
1C
00
00
00
20
70
70
30
20
C0
ENDCHAR

STARTCHAR less
ENCODING 60
SWIDTH 667 0
DWIDTH 13 0
BBX 11 8 1 2
BITMAP
00E0
07E0
1F00
F800
F800
1F00
07E0
00E0
ENDCHAR

STARTCHAR equal
ENCODING 61
SWIDTH 667 0
DWIDTH 13 0
BBX 11 6 1 3
BITMAP
FFE0
FFE0
0000
0000
FFE0
FFE0
ENDCHAR

STARTCHAR greater
ENCODING 62
SWIDTH 667 0
DWIDTH 13 0
BBX 11 8 1 2
BITMAP
E000
FC00
1F00
03E0
03E0
1F00
FC00
E000
ENDCHAR

STARTCHAR question
ENCODING 63
SWIDTH 510 0
DWIDTH 10 0
BBX 8 14 1 0
BITMAP
3C
6E
47
07
07
0F
3E
7C
70
40
00
E0
E0
E0
ENDCHAR

STARTCHAR at
ENCODING 64
SWIDTH 833 0
DWIDTH 16 0
BBX 16 18 0 -4
BITMAP
03E0
0C18
1004
2002
41B2
4371
8631
8631
8661
8C61
8C62
8CE2
8D64
4639
4002
2004
1818
07E0
ENDCHAR

STARTCHAR A
ENCODING 65
SWIDTH 708 0
DWIDTH 13 0
BBX 16 14 -2 0
BITMAP
0004
000C
001C
003C
005C
009C
019C
011C
021C
07FC
081C
101C
301C
F87F
ENDCHAR

STARTCHAR B
ENCODING 66
SWIDTH 750 0
DWIDTH 14 0
BBX 14 14 0 0
BITMAP
3FE0
0E38
0E1C
0E1C
0E1C
1C38
1FE0
1C70
1C38
3838
3838
3838
3870
FFC0
ENDCHAR

STARTCHAR C
ENCODING 67
SWIDTH 750 0
DWIDTH 14 0
BBX 13 14 2 0
BITMAP
01F8
0718
1C18
3810
7000
7000
E000
E000
E000
E000
E010
7030
7870
1FC0
ENDCHAR

STARTCHAR D
ENCODING 68
SWIDTH 802 0
DWIDTH 15 0
BBX 14 14 1 0
BITMAP
3FC0
0E70
0E38
0E18
0E1C
1C1C
1C1C
1C1C
1C1C
3838
3838
3830
38E0
FF80
ENDCHAR

STARTCHAR E
ENCODING 69
SWIDTH 740 0
DWIDTH 14 0
BBX 14 14 0 0
BITMAP
3FFC
0E0C
0E08
0E00
0E20
1C20
1FE0
1C40
1C40
3800
3808
3818
3830
FFF0
ENDCHAR

STARTCHAR F
ENCODING 70
SWIDTH 667 0
DWIDTH 13 0
BBX 14 14 0 0
BITMAP
3FFC
0E0C
0E08
0E00
0E20
1C20
1FE0
1C40
1C40
3800
3800
3800
3800
FE00
ENDCHAR

STARTCHAR G
ENCODING 71
SWIDTH 833 0
DWIDTH 16 0
BBX 15 14 2 0
BITMAP
01FC
070C
1C04
3804
7000
7000
E000
E0FE
E038
E038
E070
7070
78E0
1FC0
ENDCHAR

STARTCHAR H
ENCODING 72
SWIDTH 844 0
DWIDTH 16 0
BBX 17 14 0 0
BITMAP
3F9F80
0E0E00
0E0E00
0E0E00
0E0E00
1C1C00
1FFC00
1C1C00
1C1C00
383800
383800
383800
383800
FCFE00
ENDCHAR

STARTCHAR I
ENCODING 73
SWIDTH 417 0
DWIDTH 8 0
BBX 9 14 0 0
BITMAP
3F80
0E00
0E00
0E00
0E00
1C00
1C00
1C00
1C00
3800
3800
3800
3800
FE00
ENDCHAR

STARTCHAR J
ENCODING 74
SWIDTH 396 0
DWIDTH 8 0
BBX 13 18 -4 -4
BITMAP
03F8
00E0
00E0
00E0
00E0
01C0
01C0
01C0
01C0
01C0
0380
0380
0380
0380
0700
C700
EE00
7C00
ENDCHAR

STARTCHAR K
ENCODING 75
SWIDTH 740 0
DWIDTH 14 0
BBX 16 14 0 0
BITMAP
3F9F
0E0C
0E18
0E10
0E20
1C40
1C80
1F80
1DC0
38E0
38E0
3870
3878
FE3C
ENDCHAR

STARTCHAR L
ENCODING 76
SWIDTH 667 0
DWIDTH 13 0
BBX 12 14 1 0
BITMAP
3F80
0E00
0E00
0E00
0E00
1C00
1C00
1C00
1C00
3800
3810
3830
3860
FFE0
ENDCHAR

STARTCHAR M
ENCODING 77
SWIDTH 979 0
DWIDTH 19 0
BBX 20 14 0 0
BITMAP
0F81F0
0381C0
0383C0
0783C0
0785C0
0B8B80
0B8B80
0B9380
13A380
13A700
13C700
238700
238700
FB1FC0
ENDCHAR

STARTCHAR N
ENCODING 78
SWIDTH 812 0
DWIDTH 15 0
BBX 17 14 0 0
BITMAP
3C0F80
0E0200
0E0200
0F0200
0F0200
0B8400
138400
11C400
11C400
10E800
20E800
207800
207800
F83C00
ENDCHAR

STARTCHAR O
ENCODING 79
SWIDTH 854 0
DWIDTH 16 0
BBX 14 14 2 0
BITMAP
07E0
1C38
3838
701C
701C
E01C
E01C
E01C
E01C
E038
E038
7070
70E0
1F80
ENDCHAR

STARTCHAR P
ENCODING 80
SWIDTH 677 0
DWIDTH 13 0
BBX 14 14 0 0
BITMAP
3FF8
0E3C
0E1C
0E1C
0E1C
1C1C
1C38
1DF0
1C00
3800
3800
3800
3800
FE00
ENDCHAR

STARTCHAR Q
ENCODING 81
SWIDTH 854 0
DWIDTH 16 0
BBX 14 18 2 -4
BITMAP
07E0
1C38
3838
701C
701C
E01C
E01C
E01C
E01C
E038
E038
7070
70E0
1F80
0F00
03C0
01FC
0078
ENDCHAR

STARTCHAR R
ENCODING 82
SWIDTH 781 0
DWIDTH 15 0
BBX 15 14 0 0
BITMAP
3FF8
0E1C
0E0E
0E0E
0E0E
1C0E
1C1C
1FF8
1CE0
38E0
3870
3870
3838
FE3C
ENDCHAR

STARTCHAR S
ENCODING 83
SWIDTH 625 0
DWIDTH 12 0
BBX 10 14 1 0
BITMAP
0F80
38C0
7040
7040
7800
3C00
1E00
0F00
0780
0380
8380
8380
C700
7C00
ENDCHAR

STARTCHAR T
ENCODING 84
SWIDTH 729 0
DWIDTH 14 0
BBX 14 14 1 0
BITMAP
7FFC
638C
C38C
8388
0380
0700
0700
0700
0700
0E00
0E00
0E00
0E00
3F80
ENDCHAR

STARTCHAR U
ENCODING 85
SWIDTH 792 0
DWIDTH 15 0
BBX 14 14 2 0
BITMAP
FE7C
3810
3810
3810
7010
7020
7020
7020
E020
E040
E040
E080
7100
3E00
ENDCHAR

STARTCHAR V
ENCODING 86
SWIDTH 719 0
DWIDTH 14 0
BBX 15 14 1 0
BITMAP
FE7E
3818
3810
3820
3820
3840
3880
3880
3900
3A00
3C00
3C00
3800
3000
ENDCHAR

STARTCHAR W
ENCODING 87
SWIDTH 969 0
DWIDTH 18 0
BBX 20 14 1 0
BITMAP
FEF9F0
3870C0
387080
387080
38F100
38F100
397200
397200
3A7400
3A7400
3C7800
3C7800
387000
306000
ENDCHAR

STARTCHAR X
ENCODING 88
SWIDTH 771 0
DWIDTH 15 0
BBX 16 14 0 0
BITMAP
3F3F
0E0C
0708
0710
0390
03A0
01C0
01C0
02E0
04E0
0870
1070
3038
FCFE
ENDCHAR

STARTCHAR Y
ENCODING 89
SWIDTH 677 0
DWIDTH 13 0
BBX 14 14 1 0
BITMAP
FE7C
3830
3820
1C40
1C80
1D00
0E00
0E00
0E00
0E00
1C00
1C00
1C00
7F00
ENDCHAR

STARTCHAR Z
ENCODING 90
SWIDTH 687 0
DWIDTH 13 0
BBX 14 14 0 0
BITMAP
1FFC
181C
3038
2070
00E0
01C0
0380
0700
0E00
1C00
3808
7018
E030
FFF0
ENDCHAR

STARTCHAR bracketleft
ENCODING 91
SWIDTH 385 0
DWIDTH 7 0
BBX 9 18 0 -4
BITMAP
0F80
0E00
0E00
0E00
1C00
1C00
1C00
3800
3800
3800
3800
7000
7000
7000
E000
E000
E000
F800
ENDCHAR

STARTCHAR backslash
ENCODING 92
SWIDTH 281 0
DWIDTH 5 0
BBX 4 14 1 0
BITMAP
80
C0
C0
C0
C0
60
60
60
60
30
30
30
30
10
ENDCHAR

STARTCHAR bracketright
ENCODING 93
SWIDTH 385 0
DWIDTH 7 0
BBX 9 18 -1 -4
BITMAP
0F80
0380
0380
0380
0700
0700
0700
0E00
0E00
0E00
1C00
1C00
1C00
1C00
3800
3800
3800
F800
ENDCHAR

STARTCHAR asciicircum
ENCODING 94
SWIDTH 573 0
DWIDTH 11 0
BBX 9 7 1 7
BITMAP
0800
1C00
1400
3600
6300
6300
C180
ENDCHAR

STARTCHAR underscore
ENCODING 95
SWIDTH 500 0
DWIDTH 10 0
BBX 10 1 0 -4
BITMAP
FFC0
ENDCHAR

STARTCHAR quoteleft
ENCODING 96
SWIDTH 365 0
DWIDTH 7 0
BBX 4 6 2 8
BITMAP
30
40
C0
E0
E0
40
ENDCHAR

STARTCHAR a
ENCODING 97
SWIDTH 594 0
DWIDTH 11 0
BBX 11 9 1 0
BITMAP
0F40
39C0
71C0
71C0
E1C0
E380
E380
77A0
39C0
ENDCHAR

STARTCHAR b
ENCODING 98
SWIDTH 615 0
DWIDTH 12 0
BBX 10 14 1 0
BITMAP
0800
7800
3800
3800
3800
7780
79C0
71C0
71C0
E1C0
E380
E380
E700
7C00
ENDCHAR

STARTCHAR c
ENCODING 99
SWIDTH 500 0
DWIDTH 10 0
BBX 9 9 1 0
BITMAP
0F00
3980
7080
E000
E000
E000
E100
F200
7C00
ENDCHAR

STARTCHAR d
ENCODING 100
SWIDTH 625 0
DWIDTH 12 0
BBX 11 14 1 0
BITMAP
0020
01E0
00E0
00E0
00E0
0EE0
3BC0
71C0
E1C0
E1C0
E380
E380
73A0
3DC0
ENDCHAR

STARTCHAR e
ENCODING 101
SWIDTH 510 0
DWIDTH 10 0
BBX 9 9 1 0
BITMAP
0700
1B80
3380
7380
E700
FC00
E000
E200
7C00
ENDCHAR

STARTCHAR f
ENCODING 102
SWIDTH 333 0
DWIDTH 6 0
BBX 12 18 -3 -4
BITMAP
00E0
01B0
0390
0380
0380
0FE0
0700
0700
0700
0700
0E00
0E00
0E00
0C00
0C00
9800
D800
7000
ENDCHAR

STARTCHAR g
ENCODING 103
SWIDTH 594 0
DWIDTH 11 0
BBX 13 13 -1 -4
BITMAP
03D8
0E70
1C70
1C70
1CE0
0CE0
1F80
7000
3F00
7F80
C1C0
C080
7F00
ENDCHAR

STARTCHAR h
ENCODING 104
SWIDTH 625 0
DWIDTH 12 0
BBX 11 14 1 0
BITMAP
0800
7800
3800
3800
3000
7380
75C0
79C0
71C0
71C0
E380
E380
E3A0
E1C0
ENDCHAR

STARTCHAR i
ENCODING 105
SWIDTH 333 0
DWIDTH 6 0
BBX 7 14 1 0
BITMAP
0E
0E
0E
00
00
70
B8
38
38
70
E0
E0
E8
70
ENDCHAR

STARTCHAR j
ENCODING 106
SWIDTH 323 0
DWIDTH 6 0
BBX 9 18 -2 -4
BITMAP
0380
0380
0380
0000
0000
0E00
1700
0700
0700
0E00
0E00
0E00
0E00
1C00
1C00
1C00
B800
7000
ENDCHAR

STARTCHAR k
ENCODING 107
SWIDTH 625 0
DWIDTH 12 0
BBX 10 14 1 0
BITMAP
0800
7800
3800
3800
3800
7780
79C0
71C0
7380
FF00
EE00
E700
E740
E380
ENDCHAR

STARTCHAR l
ENCODING 108
SWIDTH 302 0
DWIDTH 6 0
BBX 5 14 1 0
BITMAP
08
78
38
38
38
70
70
70
70
E0
E0
E0
E8
70
ENDCHAR

STARTCHAR m
ENCODING 109
SWIDTH 1000 0
DWIDTH 19 0
BBX 17 9 1 0
BITMAP
71C700
BAEB80
3CF380
38E380
71C700
71C700
71CE00
E38E80
E38700
ENDCHAR

STARTCHAR n
ENCODING 110
SWIDTH 635 0
DWIDTH 12 0
BBX 11 9 1 0
BITMAP
71C0
BAE0
3CE0
38E0
71C0
71C0
7380
E3A0
E1C0
ENDCHAR

STARTCHAR o
ENCODING 111
SWIDTH 573 0
DWIDTH 11 0
BBX 10 9 1 0
BITMAP
0F00
3980
71C0
F1C0
E1C0
E380
E380
6700
3C00
ENDCHAR

STARTCHAR p
ENCODING 112
SWIDTH 615 0
DWIDTH 12 0
BBX 12 14 -1 -4
BITMAP
0E00
0FC0
1E60
2E70
0E70
1C70
1C70
1CE0
1DC0
3F00
3800
3800
3800
FE00
ENDCHAR

STARTCHAR q
ENCODING 113
SWIDTH 594 0
DWIDTH 11 0
BBX 11 13 1 -4
BITMAP
0EE0
3BC0
71C0
71C0
E1C0
E380
E380
F380
7F00
0700
0700
0700
1FC0
ENDCHAR

STARTCHAR r
ENCODING 114
SWIDTH 479 0
DWIDTH 9 0
BBX 9 9 1 0
BITMAP
7300
BD80
3900
3800
7000
7000
7000
E000
E000
ENDCHAR

STARTCHAR s
ENCODING 115
SWIDTH 490 0
DWIDTH 9 0
BBX 8 9 1 0
BITMAP
3E
73
71
78
3C
1E
8E
CE
7C
ENDCHAR

STARTCHAR t
ENCODING 116
SWIDTH 365 0
DWIDTH 7 0
BBX 6 12 1 0
BITMAP
08
18
38
FC
70
70
70
E0
E0
E0
E8
70
ENDCHAR

STARTCHAR u
ENCODING 117
SWIDTH 635 0
DWIDTH 12 0
BBX 11 9 1 0
BITMAP
70E0
B8E0
39C0
71C0
71C0
E380
E780
EBA0
71C0
ENDCHAR

STARTCHAR v
ENCODING 118
SWIDTH 573 0
DWIDTH 11 0
BBX 9 9 1 0
BITMAP
7900
9980
3980
7080
7080
E100
E100
F200
7C00
ENDCHAR

STARTCHAR w
ENCODING 119
SWIDTH 854 0
DWIDTH 16 0
BBX 14 9 1 0
BITMAP
7848
98CC
38CC
7184
7184
E188
E388
F5D0
78E0
ENDCHAR

STARTCHAR x
ENCODING 120
SWIDTH 615 0
DWIDTH 12 0
BBX 12 9 0 0
BITMAP
1860
3CB0
5D20
0E00
0E00
0700
4B00
D3A0
61C0
ENDCHAR

STARTCHAR y
ENCODING 121
SWIDTH 552 0
DWIDTH 10 0
BBX 11 13 -2 -4
BITMAP
1C40
2C60
0E60
0E20
0720
0740
0740
0380
0300
0200
0C00
D800
6000
ENDCHAR

STARTCHAR z
ENCODING 122
SWIDTH 500 0
DWIDTH 10 0
BBX 9 9 1 0
BITMAP
1C80
3F80
4300
0600
0800
3000
7100
FE00
9C00
ENDCHAR

STARTCHAR braceleft
ENCODING 123
SWIDTH 396 0
DWIDTH 8 0
BBX 9 18 0 -4
BITMAP
0380
0400
0C00
0C00
1C00
1800
1800
3000
C000
2000
3000
3000
3000
7000
6000
6000
6000
3800
ENDCHAR

STARTCHAR bar
ENCODING 124
SWIDTH 219 0
DWIDTH 4 0
BBX 1 18 2 -4
BITMAP
80
80
80
80
80
80
80
80
80
80
80
80
80
80
80
80
80
80
ENDCHAR

STARTCHAR braceright
ENCODING 125
SWIDTH 396 0
DWIDTH 8 0
BBX 9 18 -1 -4
BITMAP
0E00
0300
0300
0300
0700
0600
0600
0600
0200
0180
0600
0C00
0C00
1C00
1800
1800
1000
E000
ENDCHAR

STARTCHAR asciitilde
ENCODING 126
SWIDTH 573 0
DWIDTH 11 0
BBX 9 3 1 5
BITMAP
7880
FF80
8F00
ENDCHAR

STARTCHAR space
ENCODING 160
SWIDTH 250 0
DWIDTH 6 0
BBX 0 0 0 0
BITMAP
ENDCHAR

STARTCHAR afii10023
ENCODING 161
SWIDTH 740 0
DWIDTH 14 0
BBX 14 17 0 0
BITMAP
0330
0330
0000
3FFC
0E0C
0E08
0E00
0E20
1C20
1FE0
1C40
1C40
3800
3808
3818
3830
FFF0
ENDCHAR

STARTCHAR afii10051
ENCODING 162
SWIDTH 865 0
DWIDTH 15 0
BBX 14 14 1 0
BITMAP
7FF8
C718
8710
0700
0700
0EF0
0F38
0E1C
0E1C
1C1C
1C1C
1C1C
1CB8
7EF0
ENDCHAR

STARTCHAR afii10052
ENCODING 163
SWIDTH 656 0
DWIDTH 12 0
BBX 14 17 0 0
BITMAP
01C0
0300
0000
3FFC
0E0C
0E08
0E08
0E00
1C00
1C00
1C00
1C00
3800
3800
3800
3800
FE00
ENDCHAR

STARTCHAR afii10053
ENCODING 164
SWIDTH 771 0
DWIDTH 15 0
BBX 14 14 2 0
BITMAP
03FC
0E0C
1C04
3804
7000
7000
FFC0
E000
E000
E000
E008
7018
7838
1FE0
ENDCHAR

STARTCHAR afii10054
ENCODING 165
SWIDTH 625 0
DWIDTH 12 0
BBX 10 14 1 0
BITMAP
0F80
38C0
7040
7040
7800
3C00
1E00
0F00
0780
0380
8380
8380
C700
7C00
ENDCHAR

STARTCHAR afii10055
ENCODING 166
SWIDTH 417 0
DWIDTH 8 0
BBX 9 14 0 0
BITMAP
3F80
0E00
0E00
0E00
0E00
1C00
1C00
1C00
1C00
3800
3800
3800
3800
FE00
ENDCHAR

STARTCHAR afii10056
ENCODING 167
SWIDTH 417 0
DWIDTH 8 0
BBX 9 17 0 0
BITMAP
1980
1980
0000
3F80
0E00
0E00
0E00
0E00
1C00
1C00
1C00
1C00
3800
3800
3800
3800
FE00
ENDCHAR

STARTCHAR afii10057
ENCODING 168
SWIDTH 396 0
DWIDTH 8 0
BBX 13 18 -4 -4
BITMAP
03F8
00E0
00E0
00E0
00E0
01C0
01C0
01C0
01C0
01C0
0380
0380
0380
0380
0700
C700
EE00
7C00
ENDCHAR

STARTCHAR afii10058
ENCODING 169
SWIDTH 1099 0
DWIDTH 20 0
BBX 20 14 0 0
BITMAP
0FFF00
021C00
021C00
021C00
021C00
043800
043F80
0438E0
043870
087070
087070
887070
D870E0
71FF80
ENDCHAR

STARTCHAR afii10059
ENCODING 170
SWIDTH 1125 0
DWIDTH 21 0
BBX 21 14 0 0
BITMAP
3FBF80
0E0E00
0E0E00
0E0E00
0E0E00
1C1C00
1FFFC0
1C1C70
1C1C38
383838
383838
383838
383870
FEFFC0
ENDCHAR

STARTCHAR afii10060
ENCODING 171
SWIDTH 906 0
DWIDTH 17 0
BBX 16 14 1 0
BITMAP
7FFC
C70C
8708
8708
0700
0EF0
0F1C
0E0E
0E0E
1C0E
1C1C
1C1C
1C1C
7F7F
ENDCHAR

STARTCHAR afii10061
ENCODING 172
SWIDTH 723 0
DWIDTH 14 0
BBX 16 17 0 0
BITMAP
0070
00C0
0000
3F87
0E0D
0E18
0E10
0E20
1C20
1CC0
1F80
1DC0
38E0
38E0
3870
3878
FE3C
ENDCHAR

STARTCHAR hyphen
ENCODING 173
SWIDTH 458 0
DWIDTH 9 0
BBX 7 2 1 3
BITMAP
FE
FE
ENDCHAR

STARTCHAR afii10062
ENCODING 174
SWIDTH 719 0
DWIDTH 14 0
BBX 14 17 1 0
BITMAP
0660
03C0
0000
FE3C
3808
3810
1C10
1C20
1C20
0C40
0E40
0E80
0780
0700
6300
7200
3C00
ENDCHAR

STARTCHAR afii10145
ENCODING 175
SWIDTH 844 0
DWIDTH 16 0
BBX 17 17 0 -3
BITMAP
3F9F80
0E0E00
0E0E00
0E0E00
0E0E00
1C1C00
1C1C00
1C1C00
1C1C00
383800
383800
383800
383800
FFFE00
030000
030000
030000
ENDCHAR

STARTCHAR afii10017
ENCODING 176
SWIDTH 708 0
DWIDTH 13 0
BBX 16 14 -2 0
BITMAP
0004
000C
001C
003C
005C
009C
019C
011C
021C
07FC
081C
101C
301C
F87F
ENDCHAR

STARTCHAR afii10018
ENCODING 177
SWIDTH 729 0
DWIDTH 13 0
BBX 13 14 0 0
BITMAP
3FF8
0E18
0E10
0E10
0E00
1C00
1FC0
1C70
1C38
3838
3838
3838
3870
FFC0
ENDCHAR

STARTCHAR afii10019
ENCODING 178
SWIDTH 750 0
DWIDTH 14 0
BBX 14 14 0 0
BITMAP
3FE0
0E38
0E1C
0E1C
0E1C
1C38
1FE0
1C70
1C38
3838
3838
3838
3870
FFC0
ENDCHAR

STARTCHAR afii10020
ENCODING 179
SWIDTH 633 0
DWIDTH 12 0
BBX 14 14 0 0
BITMAP
3FFC
0E0C
0E08
0E08
0E00
1C00
1C00
1C00
1C00
3800
3800
3800
3800
FE00
ENDCHAR

STARTCHAR afii10021
ENCODING 180
SWIDTH 719 0
DWIDTH 14 0
BBX 16 17 -1 -3
BITMAP
1FFF
041C
041C
041C
041C
0438
0838
0838
0838
1070
1070
1070
2070
FFFC
C00C
C00C
8008
ENDCHAR

STARTCHAR afii10022
ENCODING 181
SWIDTH 740 0
DWIDTH 14 0
BBX 14 14 0 0
BITMAP
3FFC
0E0C
0E08
0E00
0E20
1C20
1FE0
1C40
1C40
3800
3808
3818
3830
FFF0
ENDCHAR

STARTCHAR afii10024
ENCODING 182
SWIDTH 915 0
DWIDTH 17 0
BBX 20 14 -1 0
BITMAP
18FE60
3438B0
263990
023900
027100
037600
07FF00
0EE700
0CE300
1CE380
39C380
39C180
71C1C0
E7F1C0
ENDCHAR

STARTCHAR afii10025
ENCODING 183
SWIDTH 656 0
DWIDTH 12 0
BBX 11 14 1 0
BITMAP
0F80
31C0
20E0
00E0
00E0
01C0
0F00
0380
01C0
01C0
01C0
81C0
C380
3E00
ENDCHAR

STARTCHAR afii10026
ENCODING 184
SWIDTH 844 0
DWIDTH 16 0
BBX 17 14 0 0
BITMAP
3F9F80
0E0E00
0E0E00
0E0E00
0E1E00
1C3C00
1C5C00
1C9C00
1D1C00
3A3800
3C3800
383800
383800
FCFE00
ENDCHAR

STARTCHAR afii10027
ENCODING 185
SWIDTH 844 0
DWIDTH 16 0
BBX 17 17 0 0
BITMAP
019800
00F000
000000
3F9F80
0E0E00
0E0E00
0E0E00
0E1E00
1C3C00
1C5C00
1C9C00
1D1C00
3A3800
3C3800
383800
383800
FCFE00
ENDCHAR

STARTCHAR afii10028
ENCODING 186
SWIDTH 723 0
DWIDTH 14 0
BBX 16 14 0 0
BITMAP
3F87
0E0D
0E18
0E10
0E20
1C20
1CC0
1F80
1DC0
38E0
38E0
3870
3878
FE3C
ENDCHAR

STARTCHAR afii10029
ENCODING 187
SWIDTH 835 0
DWIDTH 15 0
BBX 16 14 0 0
BITMAP
0FFF
021C
021C
021C
021C
0438
0438
0438
0438
0870
0870
8870
D870
71FC
ENDCHAR

STARTCHAR afii10030
ENCODING 188
SWIDTH 979 0
DWIDTH 19 0
BBX 20 14 0 0
BITMAP
0F81F0
0381C0
0383C0
0783C0
0785C0
0B8B80
0B8B80
0B9380
13A380
13A700
13C700
238700
238700
FB1FC0
ENDCHAR

STARTCHAR afii10031
ENCODING 189
SWIDTH 844 0
DWIDTH 16 0
BBX 17 14 0 0
BITMAP
3F9F80
0E0E00
0E0E00
0E0E00
0E0E00
1C1C00
1FFC00
1C1C00
1C1C00
383800
383800
383800
383800
FCFE00
ENDCHAR

STARTCHAR afii10032
ENCODING 190
SWIDTH 854 0
DWIDTH 16 0
BBX 14 14 2 0
BITMAP
07E0
1C38
3838
701C
701C
E01C
E01C
E01C
E01C
E038
E038
7070
70E0
1F80
ENDCHAR

STARTCHAR afii10033
ENCODING 191
SWIDTH 854 0
DWIDTH 16 0
BBX 17 14 0 0
BITMAP
3FFF80
0E0E00
0E0E00
0E0E00
0E0E00
1C1C00
1C1C00
1C1C00
1C1C00
383800
383800
383800
383800
FCFE00
ENDCHAR

STARTCHAR afii10034
ENCODING 192
SWIDTH 677 0
DWIDTH 13 0
BBX 14 14 0 0
BITMAP
3FF8
0E3C
0E1C
0E1C
0E1C
1C1C
1C38
1DF0
1C00
3800
3800
3800
3800
FE00
ENDCHAR

STARTCHAR afii10035
ENCODING 193
SWIDTH 750 0
DWIDTH 14 0
BBX 13 14 2 0
BITMAP
01F8
0718
1C18
3810
7000
7000
E000
E000
E000
E000
E010
7030
7870
1FC0
ENDCHAR

STARTCHAR afii10036
ENCODING 194
SWIDTH 729 0
DWIDTH 14 0
BBX 14 14 1 0
BITMAP
7FFC
638C
C38C
8388
0380
0700
0700
0700
0700
0E00
0E00
0E00
0E00
3F80
ENDCHAR

STARTCHAR afii10037
ENCODING 195
SWIDTH 719 0
DWIDTH 14 0
BBX 14 14 1 0
BITMAP
FE3C
3808
3810
1C10
1C20
1C20
0C40
0E40
0E80
0780
0700
6300
7200
3C00
ENDCHAR

STARTCHAR afii10038
ENCODING 196
SWIDTH 1021 0
DWIDTH 19 0
BBX 17 14 2 0
BITMAP
01F000
00E000
07FC00
3CE700
70E380
E1C380
E1C380
E1C380
E1C380
E38700
739E00
1FF000
038000
07C000
ENDCHAR

STARTCHAR afii10039
ENCODING 197
SWIDTH 771 0
DWIDTH 15 0
BBX 16 14 0 0
BITMAP
3F3F
0E0C
0708
0710
0390
03A0
01C0
01C0
02E0
04E0
0870
1070
3038
FCFE
ENDCHAR

STARTCHAR afii10040
ENCODING 198
SWIDTH 844 0
DWIDTH 16 0
BBX 17 17 0 -3
BITMAP
3F9F80
0E0E00
0E0E00
0E0E00
0E0E00
1C1C00
1C1C00
1C1C00
1C1C00
383800
383800
383800
383800
FFFE00
000600
000600
000400
ENDCHAR

STARTCHAR afii10041
ENCODING 199
SWIDTH 802 0
DWIDTH 15 0
BBX 15 14 1 0
BITMAP
FEFE
3838
3838
3838
7038
7070
70F0
3170
1E70
00E0
00E0
00E0
00E0
03F8
ENDCHAR

STARTCHAR afii10042
ENCODING 200
SWIDTH 1083 0
DWIDTH 21 0
BBX 21 14 0 0
BITMAP
3F7DF8
0E38E0
0E38E0
0E38E0
0E38E0
1C71C0
1C71C0
1C71C0
1C71C0
38E380
38E380
38E380
38E380
FFFFE0
ENDCHAR

STARTCHAR afii10043
ENCODING 201
SWIDTH 1083 0
DWIDTH 21 0
BBX 21 17 0 -3
BITMAP
3F7DF8
0E38E0
0E38E0
0E38E0
0E38E0
1C71C0
1C71C0
1C71C0
1C71C0
38E380
38E380
38E380
38E380
FFFFE0
000060
000060
000040
ENDCHAR

STARTCHAR afii10044
ENCODING 202
SWIDTH 823 0
DWIDTH 15 0
BBX 14 14 1 0
BITMAP
FFC0
C700
8700
8700
0700
0E00
0FE0
0E38
0E1C
1C1C
1C1C
1C1C
1C38
7FE0
ENDCHAR

STARTCHAR afii10045
ENCODING 203
SWIDTH 1050 0
DWIDTH 21 0
BBX 22 14 0 0
BITMAP
3F81FC
0E0070
0E0070
0E0070
0E0070
1C00E0
1FC0E0
1C70E0
1C38E0
3839C0
3839C0
3839C0
3871C0
FFC7F0
ENDCHAR

STARTCHAR afii10046
ENCODING 204
SWIDTH 719 0
DWIDTH 13 0
BBX 13 14 0 0
BITMAP
3F80
0E00
0E00
0E00
0E00
1C00
1FC0
1C70
1C38
3838
3838
3838
3870
FFC0
ENDCHAR

STARTCHAR afii10047
ENCODING 205
SWIDTH 777 0
DWIDTH 15 0
BBX 14 14 2 0
BITMAP
1FE0
7078
6038
401C
001C
001C
0FFC
0038
0038
0078
8070
80E0
C1C0
FF00
ENDCHAR

STARTCHAR afii10048
ENCODING 206
SWIDTH 1250 0
DWIDTH 23 0
BBX 23 14 0 0
BITMAP
3F83F0
0E0E1C
0E1C1C
0E380E
0E380E
1C700E
1FF00E
1C700E
1C700E
38701C
38701C
383838
383870
FE0FC0
ENDCHAR

STARTCHAR afii10049
ENCODING 207
SWIDTH 792 0
DWIDTH 15 0
BBX 17 14 -1 0
BITMAP
03FF80
070E00
0E0E00
0E0E00
0E0E00
0E1C00
071C00
03FC00
079C00
0F3800
1E3800
3C3800
783800
F07C00
ENDCHAR

STARTCHAR afii10065
ENCODING 208
SWIDTH 585 0
DWIDTH 11 0
BBX 11 9 1 0
BITMAP
0F40
39C0
71C0
71C0
E1C0
E380
E380
77A0
39C0
ENDCHAR

STARTCHAR afii10066
ENCODING 209
SWIDTH 573 0
DWIDTH 10 0
BBX 10 14 1 0
BITMAP
0040
03C0
1F00
3000
7000
6F00
F380
F380
E380
E380
E700
E700
6E00
3C00
ENDCHAR

STARTCHAR afii10067
ENCODING 210
SWIDTH 514 0
DWIDTH 9 0
BBX 8 9 1 0
BITMAP
1E
73
67
EC
FE
E7
E7
E6
7C
ENDCHAR

STARTCHAR afii10068
ENCODING 211
SWIDTH 378 0
DWIDTH 8 0
BBX 7 9 1 0
BITMAP
3C
4E
0E
0C
38
60
E0
E4
78
ENDCHAR

STARTCHAR afii10069
ENCODING 212
SWIDTH 568 0
DWIDTH 11 0
BBX 10 14 1 0
BITMAP
1000
0C00
0300
0180
0080
1EC0
7BC0
71C0
E1C0
E1C0
E380
E380
6700
3C00
ENDCHAR

STARTCHAR afii10070
ENCODING 213
SWIDTH 517 0
DWIDTH 10 0
BBX 9 9 1 0
BITMAP
0700
1B80
3380
7380
E700
FC00
E000
E200
7C00
ENDCHAR

STARTCHAR afii10072
ENCODING 214
SWIDTH 1083 0
DWIDTH 21 0
BBX 21 9 0 0
BITMAP
1C31F0
2E3398
473708
073700
07FF00
076700
866710
CC6360
7061C0
ENDCHAR

STARTCHAR afii10073
ENCODING 215
SWIDTH 407 0
DWIDTH 8 0
BBX 8 9 0 0
BITMAP
1E
27
07
1F
07
0E
4E
CC
78
ENDCHAR

STARTCHAR afii10074
ENCODING 216
SWIDTH 635 0
DWIDTH 12 0
BBX 11 9 1 0
BITMAP
70E0
B8E0
39C0
71C0
71C0
E380
E780
EBA0
71C0
ENDCHAR

STARTCHAR afii10075
ENCODING 217
SWIDTH 635 0
DWIDTH 12 0
BBX 11 12 1 0
BITMAP
1980
0F00
0000
70E0
B8E0
39C0
71C0
71C0
E380
E780
EBA0
71C0
ENDCHAR

STARTCHAR afii10076
ENCODING 218
SWIDTH 563 0
DWIDTH 11 0
BBX 11 9 0 0
BITMAP
38E0
19A0
1900
3E00
3600
3700
6300
6380
F1C0
ENDCHAR

STARTCHAR afii10077
ENCODING 219
SWIDTH 594 0
DWIDTH 11 0
BBX 10 9 0 0
BITMAP
01C0
06C0
09C0
1180
2380
2300
4700
4740
C380
ENDCHAR

STARTCHAR afii10078
ENCODING 220
SWIDTH 729 0
DWIDTH 14 0
BBX 14 9 -1 0
BITMAP
061C
071C
0738
0F78
0BB8
0BB0
1370
D374
6238
ENDCHAR

STARTCHAR afii10079
ENCODING 221
SWIDTH 635 0
DWIDTH 12 0
BBX 10 9 1 0
BITMAP
79C0
39C0
39C0
7380
7F80
7380
E700
E740
E380
ENDCHAR

STARTCHAR afii10080
ENCODING 222
SWIDTH 573 0
DWIDTH 11 0
BBX 10 9 1 0
BITMAP
0F00
3980
71C0
F1C0
E1C0
E380
E380
6700
3C00
ENDCHAR

STARTCHAR afii10081
ENCODING 223
SWIDTH 635 0
DWIDTH 12 0
BBX 11 9 1 0
BITMAP
71C0
BAE0
3CE0
38E0
71C0
71C0
7380
E3A0
E1C0
ENDCHAR

STARTCHAR afii10082
ENCODING 224
SWIDTH 612 0
DWIDTH 12 0
BBX 12 14 -1 -4
BITMAP
0E00
0FC0
1E60
2E70
0E70
1C70
1C70
1CE0
1DC0
3F00
3800
3800
3800
FE00
ENDCHAR

STARTCHAR afii10083
ENCODING 225
SWIDTH 506 0
DWIDTH 10 0
BBX 9 9 1 0
BITMAP
0F00
3980
7080
E000
E000
E000
E100
F200
7C00
ENDCHAR

STARTCHAR afii10084
ENCODING 226
SWIDTH 1000 0
DWIDTH 19 0
BBX 17 9 1 0
BITMAP
71C700
BAEB80
3CF380
38E380
71C700
71C700
71CE00
E38E80
E38700
ENDCHAR

STARTCHAR afii10085
ENCODING 227
SWIDTH 552 0
DWIDTH 10 0
BBX 11 13 -2 -4
BITMAP
1C40
2C60
0E60
0E20
0720
0740
0740
0380
0300
0200
0C00
D800
6000
ENDCHAR

STARTCHAR afii10086
ENCODING 228
SWIDTH 781 0
DWIDTH 14 0
BBX 13 18 1 -4
BITMAP
0070
00D8
01C0
0180
0180
39B0
77D8
63B8
E3B8
E3B8
E738
E730
EF70
76E0
0600
0600
6C00
3800
ENDCHAR

STARTCHAR afii10087
ENCODING 229
SWIDTH 615 0
DWIDTH 12 0
BBX 12 9 0 0
BITMAP
1860
3CB0
5D20
0E00
0E00
0700
4B00
D3A0
61C0
ENDCHAR

STARTCHAR afii10088
ENCODING 230
SWIDTH 625 0
DWIDTH 12 0
BBX 11 11 1 -2
BITMAP
70E0
B8E0
39C0
71C0
71C0
E380
E780
EBA0
71C0
0180
0300
ENDCHAR

STARTCHAR afii10089
ENCODING 231
SWIDTH 615 0
DWIDTH 11 0
BBX 10 9 1 0
BITMAP
F780
6380
E380
E380
EF00
7700
0700
0740
0380
ENDCHAR

STARTCHAR afii10090
ENCODING 232
SWIDTH 1000 0
DWIDTH 18 0
BBX 17 9 1 0
BITMAP
70E380
B8E380
39C300
71C700
71C700
E38E00
E79E00
EBAE80
71C700
ENDCHAR

STARTCHAR afii10091
ENCODING 233
SWIDTH 1000 0
DWIDTH 18 0
BBX 17 11 1 -2
BITMAP
70E380
B8E380
39C300
71C700
71C700
E38E00
E79E00
EBAE80
71C700
000600
000C00
ENDCHAR

STARTCHAR afii10092
ENCODING 234
SWIDTH 521 0
DWIDTH 9 0
BBX 8 9 1 0
BITMAP
6C
FC
9C
38
7E
E7
E7
E6
7C
ENDCHAR

STARTCHAR afii10093
ENCODING 235
SWIDTH 781 0
DWIDTH 16 0
BBX 14 9 1 0
BITMAP
783C
381C
381C
7038
7E38
E770
E770
E674
7C38
ENDCHAR

STARTCHAR afii10094
ENCODING 236
SWIDTH 510 0
DWIDTH 9 0
BBX 8 9 1 0
BITMAP
78
38
38
70
FE
E7
E7
E6
7C
ENDCHAR

STARTCHAR afii10095
ENCODING 237
SWIDTH 483 0
DWIDTH 10 0
BBX 9 9 1 0
BITMAP
1E00
2700
4380
0380
1F80
0380
8700
CE00
7800
ENDCHAR

STARTCHAR afii10096
ENCODING 238
SWIDTH 867 0
DWIDTH 17 0
BBX 16 9 1 0
BITMAP
783C
38E6
39C7
73C7
7F87
738E
E38E
E18C
E0F8
ENDCHAR

STARTCHAR afii10097
ENCODING 239
SWIDTH 603 0
DWIDTH 11 0
BBX 11 9 0 0
BITMAP
1FE0
39C0
39C0
39C0
1F80
3B80
7380
63A0
E1C0
ENDCHAR

STARTCHAR afii61352
ENCODING 240
SWIDTH 1135 0
DWIDTH 21 0
BBX 21 14 0 0
BITMAP
0F0180
0702C0
070440
038400
038400
03C470
05C898
04E918
04EB18
087310
087320
8871C0
D03000
6037F0
ENDCHAR

STARTCHAR afii10071
ENCODING 241
SWIDTH 517 0
DWIDTH 10 0
BBX 10 12 1 0
BITMAP
0CC0
0CC0
0000
0700
1B80
3380
7380
E700
FC00
E000
E200
7C00
ENDCHAR

STARTCHAR afii10099
ENCODING 242
SWIDTH 631 0
DWIDTH 12 0
BBX 10 17 1 -3
BITMAP
0800
7800
3800
7F80
3000
7380
75C0
79C0
71C0
71C0
E380
E380
E380
E380
0300
0300
0600
ENDCHAR

STARTCHAR afii10100
ENCODING 243
SWIDTH 512 0
DWIDTH 10 0
BBX 10 12 0 0
BITMAP
0380
0600
0000
3FC0
1CC0
1C80
3880
3800
3800
7000
7000
F800
ENDCHAR

STARTCHAR afii10101
ENCODING 244
SWIDTH 547 0
DWIDTH 11 0
BBX 10 9 1 0
BITMAP
0F00
3880
7040
E000
FC00
E000
E080
7180
1F00
ENDCHAR

STARTCHAR afii10102
ENCODING 245
SWIDTH 490 0
DWIDTH 9 0
BBX 8 9 1 0
BITMAP
3E
73
71
78
3C
1E
8E
CE
7C
ENDCHAR

STARTCHAR afii10103
ENCODING 246
SWIDTH 333 0
DWIDTH 6 0
BBX 7 14 1 0
BITMAP
0E
0E
0E
00
00
70
B8
38
38
70
E0
E0
E8
70
ENDCHAR

STARTCHAR afii10104
ENCODING 247
SWIDTH 333 0
DWIDTH 6 0
BBX 7 12 1 0
BITMAP
66
66
00
70
B8
38
38
70
E0
E0
E8
70
ENDCHAR

STARTCHAR afii10105
ENCODING 248
SWIDTH 323 0
DWIDTH 6 0
BBX 9 18 -2 -4
BITMAP
0380
0380
0380
0000
0000
0E00
1700
0700
0700
0E00
0E00
0E00
0E00
1C00
1C00
1C00
B800
7000
ENDCHAR

STARTCHAR afii10106
ENCODING 249
SWIDTH 771 0
DWIDTH 14 0
BBX 14 9 0 0
BITMAP
01E0
02E0
04E0
09C0
0BF8
139C
139C
A398
C1F0
ENDCHAR

STARTCHAR afii10107
ENCODING 250
SWIDTH 823 0
DWIDTH 15 0
BBX 14 9 1 0
BITMAP
F3C0
71C0
71C0
7380
7FF8
E39C
E39C
E398
E1F0
ENDCHAR

STARTCHAR afii10108
ENCODING 251
SWIDTH 625 0
DWIDTH 12 0
BBX 11 14 1 0
BITMAP
0800
7800
3800
7F80
3000
7380
75C0
79C0
71C0
71C0
E380
E380
E3A0
E1C0
ENDCHAR

STARTCHAR afii10109
ENCODING 252
SWIDTH 563 0
DWIDTH 11 0
BBX 11 12 0 0
BITMAP
0380
0600
0000
38E0
19A0
1900
3E00
3600
3700
6300
6380
F1C0
ENDCHAR

STARTCHAR section
ENCODING 253
SWIDTH 594 0
DWIDTH 11 0
BBX 11 17 0 -4
BITMAP
03C0
06E0
0C60
1400
1400
1600
1200
1A00
0A00
0B00
0900
0D00
0500
0500
C600
EC00
7800
ENDCHAR

STARTCHAR afii10110
ENCODING 254
SWIDTH 552 0
DWIDTH 10 0
BBX 11 16 -2 -4
BITMAP
0CC0
0780
0000
1C40
2C60
0E60
0E20
0720
0740
0740
0380
0300
0200
0C00
D800
6000
ENDCHAR

STARTCHAR afii10193
ENCODING 255
SWIDTH 635 0
DWIDTH 12 0
BBX 12 11 0 -2
BITMAP
3870
5C70
1CE0
38E0
38E0
71C0
73C0
75D0
38E0
6000
C000
ENDCHAR
ENDFONT
